inDegrees=no
num_controls=7
num_derivatives=13
num_iterations=126
num_multipliers=7
num_parameters=0
num_slacks=7
num_states=26
objective=5.094758
objective_accelerations=0.405304
objective_balance=0.089884
objective_effort=0.350428
objective_height=4.187380
objective_ligament=0.061762
solver_duration=1408.307710
status=Solve_Succeeded
success=true
DataType=double
version=3
OpenSimVersion=4.4-2022-07-23-0e9fedc
endheader
time	/jointset/ground_pelvis/pelvis_tilt/value	/jointset/ground_pelvis/pelvis_tx/value	/jointset/ground_pelvis/pelvis_ty/value	/jointset/hip_l/hip_flexion_l/value	/jointset/hip_l/hip_adduction_l/value	/jointset/hip_l/hip_rotation_l/value	/jointset/back/lumbar_extension/value	/jointset/patellofemoral_l/patellar_flexion_l/value	/jointset/knee_l/knee_flexion_l/value	/jointset/knee_l/knee_adduction_l/value	/jointset/knee_l/knee_rotation_l/value	/jointset/ankle_l/ankle_angle_l/value	/jointset/subtalar_l/subtalar_angle_l/value	/jointset/ground_pelvis/pelvis_tilt/speed	/jointset/ground_pelvis/pelvis_tx/speed	/jointset/ground_pelvis/pelvis_ty/speed	/jointset/hip_l/hip_flexion_l/speed	/jointset/hip_l/hip_adduction_l/speed	/jointset/hip_l/hip_rotation_l/speed	/jointset/back/lumbar_extension/speed	/jointset/patellofemoral_l/patellar_flexion_l/speed	/jointset/knee_l/knee_flexion_l/speed	/jointset/knee_l/knee_adduction_l/speed	/jointset/knee_l/knee_rotation_l/speed	/jointset/ankle_l/ankle_angle_l/speed	/jointset/subtalar_l/subtalar_angle_l/speed	/forceset/tau_hip_flexion_l	/forceset/tau_hip_adduction_l	/forceset/tau_hip_rotation_l	/forceset/tau_knee_flexion_l	/forceset/tau_ankle_angle_l	/forceset/tau_subtalar_angle_l	/forceset/tau_lumbar_extension	lambda_cid13_p0	lambda_cid13_p1	lambda_cid13_p2	lambda_cid13_p3	lambda_cid13_p4	lambda_cid13_p5	lambda_cid14_p0	/jointset/ground_pelvis/pelvis_tilt/accel	/jointset/ground_pelvis/pelvis_tx/accel	/jointset/ground_pelvis/pelvis_ty/accel	/jointset/hip_l/hip_flexion_l/accel	/jointset/hip_l/hip_adduction_l/accel	/jointset/hip_l/hip_rotation_l/accel	/jointset/back/lumbar_extension/accel	/jointset/patellofemoral_l/patellar_flexion_l/accel	/jointset/knee_l/knee_flexion_l/accel	/jointset/knee_l/knee_adduction_l/accel	/jointset/knee_l/knee_rotation_l/accel	/jointset/ankle_l/ankle_angle_l/accel	/jointset/subtalar_l/subtalar_angle_l/accel	gamma_cid13_p0	gamma_cid13_p1	gamma_cid13_p2	gamma_cid13_p3	gamma_cid13_p4	gamma_cid13_p5	gamma_cid14_p0
1.5	-0.3791266438099892	-0.03644861491601161	0.8005285760798835	1.068652891694673	-0.30648933865972	-0.08128497477461469	-0.3255308208300485	0.580953515897534	0.5809535158975782	-0.1742171410556038	0.1745142708663801	0.05385842045068135	-0.04105958637399117	0.559369330024911	0.1971517325275947	0.3445787624515951	-1.815545163727112	0.04963850934645759	-0.5136321935243602	0.5800560998472195	-1.46263997245315	-1.462639972453256	0.002568703223808447	0.0001047408019972264	-0.2852392727529486	0.01031931474554011	-0.2128245532051901	0.02294761724250334	-0.01957855983778648	-0.1851043505332347	0.0990712530053629	0.04598745789327837	0.2010935124389988	-7.199711369409274	-22.43756003107978	7.430529328852197	0.1709711153692452	-614.6543580794797	-64.28288699637825	-34.05068377708251	0.4214198109720783	0.4359941161657086	-0.2041579273506641	-1.172810411476045	0.4393349051789232	-0.2709246821630974	1.389883892009312	-0.8894030467875202	-0.8894030467875196	0.01980153415239275	-0.03167728197280142	-0.08199289027739123	0.4193125868783238	1.335544146846894e-08	8.552861748756464e-07	-1.704518084366539e-07	1.047955611688393e-07	9.808134405515953e-08	2.191566169670693e-07	1.082937264535666e-07
1.51	-0.3735122792566107	-0.03445548622372269	0.8039635033943988	1.050440752712221	-0.3059715939020781	-0.08643512723875686	-0.3196619448134747	0.56628471027529	0.566284710275327	-0.174191350646912	0.1745151311497765	0.05100221934988484	-0.04093607425818012	0.5634278472988308	0.2014497415857908	0.342340922173151	-1.826626909441111	0.05391567314131312	-0.5163196463110449	0.5936359502514446	-1.470911953749035	-1.470911953749117	0.002584932992893041	6.147060877575799e-05	-0.2859512309737706	0.014390984728063	-0.2061519850260069	0.02173862529645233	-0.01958869257305764	-0.1842871220382946	0.1007300481040838	0.04512504155499365	0.1958054768138913	-6.522215359715694	-22.26569138960109	7.499138724475153	0.0006912195709394085	-611.5721099307743	-64.55485091449577	-34.7334259117425	0.386712066894752	0.4230871953422224	-0.2434424130365017	-1.037492647195972	0.4226022566141429	-0.2557378838966832	1.329562632010258	-0.7647385449394514	-0.7647385449358124	-0.007989730700976253	0.008541719294958162	-0.05833027259749779	0.4021510343920493	9.873159804519324e-09	8.999859685877432e-07	-1.719728564375558e-07	1.100325781602398e-07	1.039899901630048e-07	2.335215656416013e-07	1.114348738503781e-07
1.52	-0.3678596006542403	-0.03242010086191267	0.8073740832391409	1.032125469073472	-0.3054109384784905	-0.09160977069216648	-0.3136597648893794	0.5515394562653121	0.5515394562653093	-0.1741655026263715	0.174515397452662	0.04814039206995784	-0.04077163407645357	0.5670321398244773	0.205603066431816	0.3397092684969692	-1.836174094988467	0.05822064253518357	-0.5185303913767521	0.6067168813509235	-1.477929650002937	-1.477929650002996	0.002580225602476614	-1.405529276700987e-05	-0.2863645085791093	0.01850492792869414	-0.1994794168467315	0.02052963335038735	-0.01959882530870141	-0.1834698935433048	0.1023888432027904	0.04426262521669262	0.1905174411888828	-5.852618010033042	-22.09404609046313	7.56961870745979	-0.1559678078343081	-608.6163568566528	-64.86904730406671	-35.39041269106902	0.330574861317293	0.4070572737316329	-0.2829206068981953	-0.8658983781475419	0.4448960249818767	-0.1755831379675225	1.290100031060029	-0.6385460383909795	-0.6385460383909817	0.01561410225203069	-0.03812842363708456	-0.02225676718061465	0.4277672304999297	6.338058024272574e-09	9.409981232244298e-07	-1.738168412174007e-07	1.145383052982958e-07	1.102422500250291e-07	2.472213272565409e-07	1.141573725663593e-07
1.53	-0.3621731681949644	-0.03034396166435708	0.8107564036020098	1.013722450861338	-0.3048071755183803	-0.09680425947604081	-0.3075294544441119	0.536730364714691	0.5367303647147519	-0.174139851165458	0.1745148853298501	0.04527590185502949	-0.04056592604582666	0.5701734444962122	0.2095943274572978	0.3366910118733118	-1.844159248040904	0.06253091095280093	-0.5202903492555659	0.6192463714749388	-1.483669067972346	-1.483669067972377	0.002544905039300044	-8.898540419082098e-05	-0.2864844778607386	0.02263819063106419	-0.1926411195943094	0.01915617254948636	-0.01965477599031278	-0.1827351756788047	0.1041803378913272	0.04330205687708632	0.1850679091543816	-5.140988554169836	-21.88766792006172	7.635172290379363	-0.3096991803945038	-605.6124894026391	-65.14576772609134	-36.01875076580999	0.2937751399642635	0.3906177266118827	-0.3208229401426878	-0.7242745778544012	0.423836098827542	-0.1645243766245441	1.219548068707314	-0.5087243852622939	-0.5087243852581491	-0.01372465432519533	0.007807388462005266	0.0005006377172641326	0.4061969510246311	2.746834870460119e-09	9.780921613434931e-07	-1.760039463248728e-07	1.182670369671733e-07	1.168595995008685e-07	2.602143276206637e-07	1.164350570589584e-07
1.54	-0.3564577493150041	-0.02822881841461558	0.8141066324486338	0.9952476909568735	-0.3041603611043556	-0.1020140122914746	-0.3012768141844742	0.5218704620425936	0.5218704620426664	-0.1741146768139753	0.1745136204445309	0.04241168547655795	-0.04031886715599253	0.5728294239624693	0.2134038768689968	0.3332909652479946	-1.850522433455836	0.06683093331746713	-0.5215831976858304	0.6311828442243635	-1.488091874303614	-1.488091874303618	0.002484803727211472	-0.0001646077813226736	-0.2863097412875154	0.02677509977019456	-0.1858028223418217	0.01778271174853656	-0.01971072667243109	-0.1820004578142459	0.105971832579838	0.04234148853742625	0.1796183771199666	-4.437310087801482	-21.68123542573261	7.702245507142167	-0.4484946238433994	-602.7351633231888	-65.46479126324378	-36.61568286303234	0.2335098202215908	0.3707149509751785	-0.3592786072301336	-0.5415048506466266	0.442846814391607	-0.08216124825760994	1.171496556141847	-0.375223710762989	-0.3752237107629827	0.01065795246946393	-0.03826687677867419	0.03668440378997161	0.4284965178519417	4.053060618487779e-09	1.003190595722677e-06	-1.933221657425844e-07	1.164413040842529e-07	1.297997290511091e-07	2.722449900131503e-07	1.199609052450631e-07
